<?xml version="1.0" encoding="UTF-8" standalone="no"?>
<!-- Created with Inkscape (http://www.inkscape.org/) -->

<svg
   width="26"
   height="26"
   viewBox="0 0 26 26"
   version="1.1"
   id="svg5"
   xml:space="preserve"
   inkscape:export-filename="RavenLogo.svg"
   inkscape:export-xdpi="9564.7383"
   inkscape:export-ydpi="9564.7383"
   sodipodi:docname="logo.svg"
   inkscape:version="1.1.1 (3bf5ae0d25, 2021-09-20)"
   xmlns:inkscape="http://www.inkscape.org/namespaces/inkscape"
   xmlns:sodipodi="http://sodipodi.sourceforge.net/DTD/sodipodi-0.dtd"
   xmlns="http://www.w3.org/2000/svg"
   xmlns:svg="http://www.w3.org/2000/svg"><sodipodi:namedview
     id="namedview7"
     pagecolor="#b0b0b0"
     bordercolor="#000000"
     borderopacity="0.25"
     inkscape:showpageshadow="2"
     inkscape:pageopacity="0"
     inkscape:pagecheckerboard="true"
     inkscape:deskcolor="#d1d1d1"
     inkscape:document-units="mm"
     showgrid="false"
     inkscape:zoom="21.736668"
     inkscape:cx="18.494095"
     inkscape:cy="14.146603"
     inkscape:window-width="1920"
     inkscape:window-height="1017"
     inkscape:window-x="-8"
     inkscape:window-y="-8"
     inkscape:window-maximized="1"
     inkscape:current-layer="layer1"
     inkscape:pageshadow="0"
     fit-margin-top="1"
     fit-margin-left="1"
     fit-margin-right="1"
     fit-margin-bottom="1"
     units="px"
     width="55mm" /><defs
     id="defs2"><inkscape:path-effect
       effect="bspline"
       id="path-effect8724"
       is_visible="true"
       lpeversion="1"
       weight="33.333333"
       steps="2"
       helper_size="0"
       apply_no_weight="true"
       apply_with_weight="true"
       only_selected="false" /><inkscape:path-effect
       effect="bspline"
       id="path-effect8720"
       is_visible="true"
       lpeversion="1"
       weight="33.333333"
       steps="2"
       helper_size="0"
       apply_no_weight="true"
       apply_with_weight="true"
       only_selected="false" /><inkscape:path-effect
       effect="bspline"
       id="path-effect5310"
       is_visible="true"
       lpeversion="1"
       weight="33.333333"
       steps="2"
       helper_size="0"
       apply_no_weight="true"
       apply_with_weight="true"
       only_selected="false" /><inkscape:path-effect
       effect="bspline"
       id="path-effect5094"
       is_visible="true"
       lpeversion="1"
       weight="33.333333"
       steps="2"
       helper_size="0"
       apply_no_weight="true"
       apply_with_weight="true"
       only_selected="false" /><inkscape:path-effect
       effect="bspline"
       id="path-effect5086"
       is_visible="true"
       lpeversion="1"
       weight="33.333333"
       steps="2"
       helper_size="0"
       apply_no_weight="true"
       apply_with_weight="true"
       only_selected="false" /><linearGradient
       id="linearGradient1179"
       inkscape:swatch="solid"><stop
         style="stop-color:#000000;stop-opacity:1;"
         offset="0"
         id="stop1177" /></linearGradient><linearGradient
       id="linearGradient1173"
       inkscape:swatch="solid"><stop
         style="stop-color:#000000;stop-opacity:1;"
         offset="0"
         id="stop1171" /></linearGradient><filter
       style="color-interpolation-filters:sRGB"
       inkscape:label="Invert"
       id="filter6202"
       x="-0.013953973"
       y="-0.0071682194"
       width="1.0279075"
       height="1.0143321"><feColorMatrix
         values="1 0 0 0 0 0 1 0 0 0 0 0 1 0 0 -0.21 -0.72 -0.07 2 0 "
         result="fbSourceGraphic"
         id="feColorMatrix6200" /><feColorMatrix
         result="fbSourceGraphicAlpha"
         in="fbSourceGraphic"
         values="0 0 0 -1 0 0 0 0 -1 0 0 0 0 -1 0 0 0 0 1 0"
         id="feColorMatrix6936" /><feColorMatrix
         id="feColorMatrix6938"
         values="-1 0 0 0 1 0 -1 0 0 1 0 0 -1 0 1 -0.21 -0.72 -0.07 2 0 "
         result="fbSourceGraphic"
         in="fbSourceGraphic" /><feColorMatrix
         result="fbSourceGraphicAlpha"
         in="fbSourceGraphic"
         values="0 0 0 -1 0 0 0 0 -1 0 0 0 0 -1 0 0 0 0 1 0"
         id="feColorMatrix6940" /><feColorMatrix
         id="feColorMatrix6942"
         values="-1 0 0 0 1 0 -1 0 0 1 0 0 -1 0 1 -0.21 -0.72 -0.07 2 0 "
         result="fbSourceGraphic"
         in="fbSourceGraphic" /><feColorMatrix
         result="fbSourceGraphicAlpha"
         in="fbSourceGraphic"
         values="0 0 0 -1 0 0 0 0 -1 0 0 0 0 -1 0 0 0 0 1 0"
         id="feColorMatrix6944" /><feColorMatrix
         id="feColorMatrix6946"
         values="-1 0 0 0 1 0 -1 0 0 1 0 0 -1 0 1 -0.21 -0.72 -0.07 2 0 "
         result="color2"
         in="fbSourceGraphic" /></filter><filter
       style="color-interpolation-filters:sRGB"
       inkscape:label="Invert"
       id="filter7676"
       x="-0.068821758"
       y="-0.089536868"
       width="1.1406889"
       height="1.176445"><feColorMatrix
         values="-1 0 0 0 1 0 -1 0 0 1 0 0 -1 0 1 -0.21 -0.72 -0.07 2 0 "
         result="color2"
         id="feColorMatrix7674" /></filter><inkscape:path-effect
       effect="bspline"
       id="path-effect8720-4-6"
       is_visible="true"
       lpeversion="1"
       weight="33.333333"
       steps="2"
       helper_size="0"
       apply_no_weight="true"
       apply_with_weight="true"
       only_selected="false" /><inkscape:path-effect
       effect="bspline"
       id="path-effect8724-1-7"
       is_visible="true"
       lpeversion="1"
       weight="33.333333"
       steps="2"
       helper_size="0"
       apply_no_weight="true"
       apply_with_weight="true"
       only_selected="false" /><inkscape:path-effect
       effect="bspline"
       id="path-effect8720-4-6-2"
       is_visible="true"
       lpeversion="1"
       weight="33.333333"
       steps="2"
       helper_size="0"
       apply_no_weight="true"
       apply_with_weight="true"
       only_selected="false" /><inkscape:path-effect
       effect="bspline"
       id="path-effect8724-1-7-3"
       is_visible="true"
       lpeversion="1"
       weight="33.333333"
       steps="2"
       helper_size="0"
       apply_no_weight="true"
       apply_with_weight="true"
       only_selected="false" /></defs><g
     inkscape:label="Ebene 1"
     inkscape:groupmode="layer"
     id="layer1"><g
       id="g48459"
       transform="matrix(0.35345913,0,0,0.3575686,-41.173777,-3.3078393)"><g
         id="g3620-9-7"
         style="stroke:#ffffff;stroke-width:1.26848;stroke-dasharray:none;stroke-opacity:1"
         transform="matrix(0.76996367,0,0,0.76996367,53.644883,-40.636539)"><path
           style="fill:#00ff00;stroke:#ffffff;stroke-width:1.26848;stroke-dasharray:none;stroke-opacity:1"
           d="m 156.16899,83.297928 c -1.40626,-0.118857 -2.70226,-0.712685 -3.52398,-1.614655 -0.72348,-0.794149 -0.93424,-1.542132 -0.9991,-3.545756 -0.0276,-0.849826 -0.0192,-1.672463 0.0184,-1.828087 l 0.0684,-0.282947 1.4379,0.0555 c 3.46526,0.133766 6.78692,1.497078 7.5119,3.083118 0.21483,0.470002 0.21762,1.414293 0.006,2.03495 -0.52015,1.525593 -2.17919,2.295685 -4.51953,2.097871 z"
           id="path417-2-2" /><path
           style="opacity:1;fill:#000000;fill-opacity:1;stroke:#ffffff;stroke-width:1.26848;stroke-linecap:round;stroke-linejoin:round;stroke-miterlimit:2.8;stroke-dasharray:none;stroke-opacity:1;paint-order:normal"
           d="m 130.37927,67.935778 c 0,0 2.17863,1.508391 4.07196,1.393332 4.03621,0.357978 5.22514,0.329517 8.38665,0.282944 2.28543,0.08517 -0.9818,-0.79641 -0.9818,-0.79641 0,0 1.99262,-0.136336 3.85721,0.454063 1.86459,0.590399 4.77431,1.419524 5.23461,1.509226 8.12474,1.583344 25.01308,5.943375 24.82697,20.429942 -0.0315,2.451889 -0.71456,7.286799 -0.86402,9.322695 -0.14946,2.03589 0.23468,1.27277 -0.45231,-0.0608 -0.39005,-0.757147 -1.30124,-2.28401 -2.78233,-3.923405 -2.70583,-2.995026 -6.45877,-4.691187 -12.80302,-5.786387 -3.0236,-0.521959 -3.0236,-0.521959 2.13921,4.539137 7.02087,6.882545 9.20922,11.590685 9.16565,19.719525 -0.0389,7.2581 -1.01088,10.87499 -4.26894,15.88549 -1.11994,1.72233 -2.5471,3.2871 -2.5471,3.2871 0,0 -0.0244,-0.54515 -0.12673,-1.40898 -0.35011,-2.9565 -1.15689,-5.42428 -1.87635,-6.55126 -0.71947,-1.12698 -1.35162,-0.91315 -1.35249,1.49356 -0.002,4.09128 -12.30599,18.16952 -12.30599,18.16952 0,0 0.20846,-2.21743 0.20389,-4.60796 -0.01,-5.00801 -0.72428,-10.01565 -1.42943,-10.01565 -0.26623,0 -0.87324,2.04791 -1.34892,4.55092 -1.12804,5.93571 -6.25724,12.84074 -9.79021,16.75132 -1.54996,1.71561 -4.95651,3.88899 -4.95651,3.88899 z m 27.86216,12.261761 c 0.56651,-1.476303 -0.28411,-2.340699 -2.95167,-2.999473 -1.20495,-0.297571 -2.54233,-0.174111 -2.54233,-0.174111 0,0 -0.3093,2.301581 0.46456,3.23402 1.22858,1.48035 4.45305,1.441605 5.02944,-0.06043 z"
           id="path484-8-8"
           sodipodi:nodetypes="cccczsscsssssscsscccsssccsscsss" /></g><path
         sodipodi:type="spiral"
         style="fill:none;fill-opacity:1;fill-rule:evenodd;stroke:#ffffff;stroke-width:0.598687;stroke-linecap:round;stroke-miterlimit:4;stroke-dasharray:none;stroke-opacity:1"
         id="path1799-7-5-8"
         sodipodi:cx="33.311333"
         sodipodi:cy="44.892223"
         sodipodi:expansion="1"
         sodipodi:revolution="3"
         sodipodi:radius="6.5644131"
         sodipodi:argument="-21.750978"
         sodipodi:t0="0"
         transform="matrix(-1.2716471,1.0219107,1.0219107,1.2716471,165.13487,-52.28568)"
         d="m 33.311333,44.892223 c -0.319683,-0.07829 -0.05219,-0.46955 0.130122,-0.531333 0.494047,-0.167427 0.902323,0.347822 0.932544,0.791577 0.05406,0.793774 -0.714381,1.35671 -1.453032,1.333756 -1.084,-0.03369 -1.819987,-1.08426 -1.734967,-2.114487 0.113318,-1.373131 1.455099,-2.286778 2.775942,-2.136179 1.662146,0.189515 2.755331,1.826345 2.53739,3.437398 -0.263956,1.951201 -2.197807,3.224893 -4.098853,2.938601 -2.240316,-0.337386 -3.695087,-2.569404 -3.339812,-4.760308 0.41018,-2.529485 2.94109,-4.165704 5.421763,-3.741023 2.818698,0.482549 4.636616,3.312839 4.142235,6.083217 -0.554622,3.107946 -3.684636,5.107744 -6.744673,4.543446 -3.397222,-0.626477 -5.579032,-4.056466 -4.944657,-7.406127" /><path
         style="fill:none;fill-opacity:1;stroke:#ffffff;stroke-width:0.976686;stroke-linecap:butt;stroke-linejoin:miter;stroke-miterlimit:4;stroke-dasharray:none;stroke-opacity:1"
         d="m 163.8249,46.36723 c 1.35827,1.996156 2.71635,3.992017 3.06806,6.528692 0.35172,2.536675 -0.3025,5.612875 -0.95644,8.687805"
         id="path5092-1-3-9"
         inkscape:path-effect="#path-effect8720-4-6"
         inkscape:original-d="m 163.8249,46.36723 c 1.35695,1.997056 2.71503,3.992913 4.0743,5.987704 -0.65539,3.077479 -1.3096,6.153679 -1.96268,9.228793"
         sodipodi:nodetypes="ccc" /><path
         style="fill:none;fill-opacity:1;stroke:#ffffff;stroke-width:0.976686;stroke-linecap:butt;stroke-linejoin:miter;stroke-miterlimit:4;stroke-dasharray:none;stroke-opacity:1"
         d="m 177.25179,43.632775 c -0.41553,0.719044 -0.83087,1.437764 -0.82169,2.441793 0.009,1.004029 0.44126,2.293589 0.58447,4.193074 0.1432,1.899485 -0.003,4.402736 -0.14843,6.906632"
         id="path5308-4-1-0"
         inkscape:path-effect="#path-effect8724-1-7"
         inkscape:original-d="m 177.25179,43.632775 c -0.41589,0.718835 -0.83123,1.437556 -1.24513,2.154614 0.43126,1.291666 0.86333,2.581228 1.29719,3.871559 -0.14714,2.508117 -0.29296,5.011367 -0.43771,7.515326"
         sodipodi:nodetypes="cscc" /><g
         id="g3620-9-7-0"
         style="stroke:#ffffff;stroke-width:1.26848;stroke-dasharray:none;stroke-opacity:1"
         transform="matrix(-0.76996367,0,0,0.76996367,253.1051,-40.642135)"><path
           style="fill:#00ff00;stroke:#ffffff;stroke-width:1.26848;stroke-dasharray:none;stroke-opacity:1"
           d="m 156.16899,83.297928 c -1.40626,-0.118857 -2.70226,-0.712685 -3.52398,-1.614655 -0.72348,-0.794149 -0.93424,-1.542132 -0.9991,-3.545756 -0.0276,-0.849826 -0.0192,-1.672463 0.0184,-1.828087 l 0.0684,-0.282947 1.4379,0.0555 c 3.46526,0.133766 6.78692,1.497078 7.5119,3.083118 0.21483,0.470002 0.21762,1.414293 0.006,2.03495 -0.52015,1.525593 -2.17919,2.295685 -4.51953,2.097871 z"
           id="path417-2-2-0" /><path
           style="opacity:1;fill:#000000;fill-opacity:1;stroke:#ffffff;stroke-width:1.26848;stroke-linecap:round;stroke-linejoin:round;stroke-miterlimit:2.8;stroke-dasharray:none;stroke-opacity:1;paint-order:normal"
           d="m 130.37927,67.935778 c 0,0 2.17863,1.508391 4.07196,1.393332 4.03621,0.357978 5.22514,0.329517 8.38665,0.282944 2.28543,0.08517 -0.9818,-0.79641 -0.9818,-0.79641 0,0 1.99262,-0.136336 3.85721,0.454063 1.86459,0.590399 4.77431,1.419524 5.23461,1.509226 8.12474,1.583344 25.01308,5.943375 24.82697,20.429942 -0.0315,2.451889 -0.71456,7.286799 -0.86402,9.322695 -0.14946,2.03589 0.23468,1.27277 -0.45231,-0.0608 -0.39005,-0.757147 -1.30124,-2.28401 -2.78233,-3.923405 -2.70583,-2.995026 -6.45877,-4.691187 -12.80302,-5.786387 -3.0236,-0.521959 -3.0236,-0.521959 2.13921,4.539137 7.02087,6.882545 9.20922,11.590685 9.16565,19.719525 -0.0389,7.2581 -1.01088,10.87499 -4.26894,15.88549 -1.11994,1.72233 -2.5471,3.2871 -2.5471,3.2871 0,0 -0.0244,-0.54515 -0.12673,-1.40898 -0.35011,-2.9565 -1.15689,-5.42428 -1.87635,-6.55126 -0.71947,-1.12698 -1.35162,-0.91315 -1.35249,1.49356 -0.002,4.09128 -12.30599,18.16952 -12.30599,18.16952 0,0 0.20846,-2.21743 0.20389,-4.60796 -0.01,-5.00801 -0.72428,-10.01565 -1.42943,-10.01565 -0.26623,0 -0.87324,2.04791 -1.34892,4.55092 -1.12804,5.93571 -6.25724,12.84074 -9.79021,16.75132 -1.54996,1.71561 -4.95651,3.88899 -4.95651,3.88899 z m 27.86216,12.261761 c 0.56651,-1.476303 -0.28411,-2.340699 -2.95167,-2.999473 -1.20495,-0.297571 -2.54233,-0.174111 -2.54233,-0.174111 0,0 -0.3093,2.301581 0.46456,3.23402 1.22858,1.48035 4.45305,1.441605 5.02944,-0.06043 z"
           id="path484-8-8-8"
           sodipodi:nodetypes="cccczsscsssssscsscccsssccsscsss" /></g><path
         sodipodi:type="spiral"
         style="fill:none;fill-opacity:1;fill-rule:evenodd;stroke:#ffffff;stroke-width:0.598687;stroke-linecap:round;stroke-miterlimit:4;stroke-dasharray:none;stroke-opacity:1"
         id="path1799-7-5-8-5"
         sodipodi:cx="33.311333"
         sodipodi:cy="44.892223"
         sodipodi:expansion="1"
         sodipodi:revolution="3"
         sodipodi:radius="6.5644131"
         sodipodi:argument="-21.750978"
         sodipodi:t0="0"
         transform="matrix(1.2716471,1.0219107,-1.0219107,1.2716471,141.61512,-52.291276)"
         d="m 33.311333,44.892223 c -0.319683,-0.07829 -0.05219,-0.46955 0.130122,-0.531333 0.494047,-0.167427 0.902323,0.347822 0.932544,0.791577 0.05406,0.793774 -0.714381,1.35671 -1.453032,1.333756 -1.084,-0.03369 -1.819987,-1.08426 -1.734967,-2.114487 0.113318,-1.373131 1.455099,-2.286778 2.775942,-2.136179 1.662146,0.189515 2.755331,1.826345 2.53739,3.437398 -0.263956,1.951201 -2.197807,3.224893 -4.098853,2.938601 -2.240316,-0.337386 -3.695087,-2.569404 -3.339812,-4.760308 0.41018,-2.529485 2.94109,-4.165704 5.421763,-3.741023 2.818698,0.482549 4.636616,3.312839 4.142235,6.083217 -0.554622,3.107946 -3.684636,5.107744 -6.744673,4.543446 -3.397222,-0.626477 -5.579032,-4.056466 -4.944657,-7.406127" /><path
         style="fill:none;fill-opacity:1;stroke:#ffffff;stroke-width:0.976686;stroke-linecap:butt;stroke-linejoin:miter;stroke-miterlimit:4;stroke-dasharray:none;stroke-opacity:1"
         d="m 142.92508,46.361634 c -1.35827,1.996156 -2.71634,3.992013 -3.06806,6.52869 -0.35171,2.536676 0.3025,5.612875 0.95645,8.687807"
         id="path5092-1-3-9-1"
         inkscape:path-effect="#path-effect8720-4-6-2"
         inkscape:original-d="m 142.92508,46.361634 c -1.35695,1.997056 -2.71502,3.992913 -4.0743,5.987705 0.65539,3.077478 1.3096,6.153678 1.96269,9.228792"
         sodipodi:nodetypes="ccc" /><path
         style="fill:none;fill-opacity:1;stroke:#ffffff;stroke-width:0.976686;stroke-linecap:butt;stroke-linejoin:miter;stroke-miterlimit:4;stroke-dasharray:none;stroke-opacity:1"
         d="m 129.49819,43.627179 c 0.41553,0.719048 0.83087,1.437765 0.82169,2.441793 -0.009,1.004029 -0.44126,2.293587 -0.58446,4.193074 -0.1432,1.899486 0.003,4.402737 0.14843,6.906632"
         id="path5308-4-1-0-5"
         inkscape:path-effect="#path-effect8724-1-7-3"
         inkscape:original-d="m 129.49819,43.627179 c 0.4159,0.718835 0.83123,1.437557 1.24513,2.154614 -0.43126,1.291666 -0.86332,2.581229 -1.29719,3.871559 0.14715,2.508118 0.29296,5.011368 0.43772,7.515326"
         sodipodi:nodetypes="cscc" /></g></g></svg>
